<svg viewBox="14 -53 250 250" xmlns="http://www.w3.org/2000/svg" role="img" aria-label="Mightling">
  <rect x="14" y="-53" width="250" height="250" rx="56" fill="#FFFFFF"/>
  <polygon points="96,64 52,14 78,16 134,56" fill="#242A32"/>
  <polygon points="96,64 78,16 134,56" fill="#2E3947"/>
  <polygon points="28,96 70,70 130,56 176,44 196,52 196,92 182,100 140,118 90,122 44,112" fill="#242A32"/>
  <polygon points="130,56 176,44 168,86" fill="#2C3745"/>
  <polygon points="70,70 130,56 118,92" fill="#28323F"/>
  <polygon points="178,99 140,116 92,120 58,110 102,103 148,95" fill="#D9DEE5"/>
  <polygon points="196,52 196,92 172,86 174,54" fill="#D9DEE5"/>
  <polygon points="184,58 189,63 184,68 179,63" fill="#242A32"/>
  <polygon points="196,52 250,74 196,72" fill="#FF6B35"/>
  <polygon points="196,72 250,74 196,92" fill="#E4572E"/>
  <polygon points="98,121 112,131 118,119" fill="#FF6B35"/>
</svg>
